<?xml version="1.0" encoding="utf-8"?>
<!-- Generator: Adobe Illustrator 16.0.0, SVG Export Plug-In . SVG Version: 6.00 Build 0)  -->
<!DOCTYPE svg PUBLIC "-//W3C//DTD SVG 1.1//EN" "http://www.w3.org/Graphics/SVG/1.1/DTD/svg11.dtd">
<svg version="1.1" id="Layer_1" xmlns:sketch="http://www.bohemiancoding.com/sketch/ns"
	 xmlns="http://www.w3.org/2000/svg" xmlns:xlink="http://www.w3.org/1999/xlink" x="0px" y="0px" width="200px" height="200px"
	 viewBox="0 0 200 200" enable-background="new 0 0 200 200" xml:space="preserve">
<title>science-fox</title>
<desc>Created with Sketch.</desc>
<g id="Page-1_1_" sketch:type="MSPage">
	<g id="science-fox" sketch:type="MSArtboardGroup">
		<g id="Page-1" sketch:type="MSLayerGroup">
			<path id="Fill-1" sketch:type="MSShapeGroup" fill="#663366" d="M0,0.689V127.6l52.439,45.711L173.576,56.372L126.141,0.689H0z"
				/>
			<g id="Group-6" transform="translate(25.908046, 28.142857)" sketch:type="MSShapeGroup">
				<path id="Fill-2" fill="#663366" d="M0.85,84.644c0,46.51,37.729,84.213,84.268,84.213c46.529,0,84.259-37.703,84.259-84.213
					c0-46.507-37.729-84.21-84.259-84.21H0.85V84.644z"/>
				<path id="Fill-4" fill="#FFFFFF" d="M8.099,84.644c0,42.509,34.483,76.969,77.019,76.969c42.525,0,77.011-34.46,77.011-76.969
					c0-42.506-34.483-76.966-77.011-76.966H8.099V84.644z"/>
			</g>
		</g>
	</g>
</g>
<ellipse fill="#FFFFFF" cx="110" cy="110.334" rx="61.5" ry="69.167"/>
<path fill="#663366" d="M111.191,51.741c-33.959,0-61.488,27.538-61.488,61.5c0,33.959,27.529,61.489,61.488,61.489
	c33.961,0,61.492-27.53,61.492-61.489C172.684,79.279,145.152,51.741,111.191,51.741L111.191,51.741z M111.191,59.636
	c3.629,0,6.57,2.942,6.57,6.571c0,3.628-2.941,6.563-6.57,6.563c-3.625,0-6.571-2.935-6.571-6.563
	C104.62,62.578,107.566,59.636,111.191,59.636z M81.506,70.211c1.894,0.01,3.769,0.84,5.058,2.422
	c2.291,2.811,1.87,6.947-0.94,9.239c-2.814,2.296-6.946,1.871-9.238-0.94c-2.293-2.812-1.878-6.944,0.933-9.237
	C78.55,70.691,80.033,70.202,81.506,70.211z M141.236,70.691c1.576-0.058,3.177,0.45,4.479,1.545
	c2.774,2.338,3.134,6.479,0.793,9.253c-2.336,2.775-6.478,3.131-9.254,0.795c-2.772-2.338-3.132-6.477-0.792-9.253
	C137.705,71.557,139.455,70.76,141.236,70.691z M111.191,75.805l4.438,7.687h-3.668v17.386h-1.543V83.491h-3.665L111.191,75.805
	L111.191,75.805z M87.542,84.227l8.299,3.155l-2.844,2.314l10.979,13.464l-1.197,0.979L91.8,90.676l-2.844,2.315L87.542,84.227
	L87.542,84.227z M135.301,84.6l-1.551,8.751l-2.805-2.361l-11.195,13.287l-1.191-0.993l11.194-13.295l-2.796-2.361L135.301,84.6
	L135.301,84.6z M64.878,97.928c0.437-0.007,0.878,0.028,1.323,0.113c3.562,0.677,5.906,4.107,5.233,7.674s-4.107,5.91-7.671,5.233
	c-3.566-0.675-5.917-4.105-5.242-7.673C59.111,100.155,61.823,97.973,64.878,97.928L64.878,97.928z M157.416,98.667
	c3.188-0.063,6.032,2.21,6.593,5.448c0.616,3.576-1.782,6.97-5.356,7.59c-3.572,0.615-6.969-1.775-7.586-5.35
	c-0.616-3.576,1.779-6.98,5.355-7.597C156.756,98.703,157.085,98.674,157.416,98.667z M82.791,103.344l-0.682,3.602l17.081,3.23
	l-0.293,1.529l-17.07-3.234l-0.686,3.602l-6.726-5.793L82.791,103.344L82.791,103.344z M139.747,103.801l8.338,3.066l-6.829,5.684
	l-0.619-3.611l-17.127,2.955l-0.268-1.527l17.125-2.956L139.747,103.801L139.747,103.801z M111.191,104.827
	c4.645,0,8.406,3.771,8.406,8.414c0,4.642-3.763,8.403-8.406,8.403c-4.645,0-8.412-3.763-8.412-8.403
	C102.779,108.598,106.547,104.827,111.191,104.827z M100.043,118.626l0.758,1.354l-15.138,8.526l1.796,3.196l-8.878-0.094
	l4.522-7.644l1.795,3.187L100.043,118.626z M122.256,118.802l15.012,8.774l1.84-3.164l4.4,7.709l-8.88-0.046l1.851-3.163l-15-8.771
	L122.256,118.802L122.256,118.802z M106.135,124.542l1.452,0.544l-6.082,16.282l3.429,1.282l-6.854,5.647l-1.465-8.756l3.439,1.281
	L106.135,124.542L106.135,124.542z M116.066,124.627l5.832,16.367l3.447-1.223l-1.601,8.731l-6.763-5.761l3.453-1.23l-5.828-16.367
	L116.066,124.627L116.066,124.627z M70.105,129.747c2.329-0.035,4.605,1.173,5.83,3.343c1.781,3.161,0.663,7.169-2.498,8.951
	c-3.162,1.779-7.168,0.659-8.949-2.498c-1.779-3.166-0.66-7.167,2.499-8.951C67.975,130.036,69.046,129.761,70.105,129.747
	L70.105,129.747z M151.693,130.402c1.16-0.021,2.342,0.265,3.42,0.896c3.138,1.828,4.188,5.853,2.354,8.985
	c-1.829,3.132-5.853,4.182-8.985,2.354c-3.133-1.832-4.189-5.855-2.36-8.984C147.323,131.594,149.473,130.439,151.693,130.402
	L151.693,130.402z M94.443,150.72c0.853-0.036,1.727,0.097,2.576,0.413c3.396,1.271,5.122,5.057,3.852,8.453
	c-1.273,3.398-5.055,5.127-8.454,3.857c-3.398-1.271-5.123-5.061-3.851-8.461C89.52,152.436,91.884,150.829,94.443,150.72
	L94.443,150.72z M127.027,150.975c2.678,0.021,5.176,1.694,6.127,4.361c1.216,3.417-0.57,7.182-3.988,8.396
	c-3.419,1.22-7.174-0.57-8.391-3.988c-1.215-3.418,0.572-7.17,3.988-8.391C125.512,151.087,126.275,150.968,127.027,150.975
	L127.027,150.975z"/>
</svg>
